G04 #@! TF.GenerationSoftware,KiCad,Pcbnew,no-vcs-found-01f5a12~58~ubuntu16.10.1*
G04 #@! TF.CreationDate,2017-04-19T13:18:18+03:00*
G04 #@! TF.ProjectId,cnc-test-pattern,636E632D746573742D7061747465726E,rev?*
G04 #@! TF.FileFunction,Copper,L1,Top,Signal*
G04 #@! TF.FilePolarity,Positive*
%FSLAX46Y46*%
G04 Gerber Fmt 4.6, Leading zero omitted, Abs format (unit mm)*
G04 Created by KiCad (PCBNEW no-vcs-found-01f5a12~58~ubuntu16.10.1) date Wed Apr 19 13:18:18 2017*
%MOMM*%
%LPD*%
G01*
G04 APERTURE LIST*
%ADD10C,0.100000*%
%ADD11C,0.300000*%
%ADD12R,1.550000X0.600000*%
%ADD13R,1.600000X0.550000*%
%ADD14R,0.550000X1.600000*%
%ADD15R,0.900000X0.800000*%
%ADD16C,0.250000*%
%ADD17C,0.500000*%
%ADD18C,1.000000*%
%ADD19C,0.750000*%
%ADD20C,0.125000*%
G04 APERTURE END LIST*
D10*
D11*
X13428571Y21821429D02*
X13571428Y21821429D01*
X13714285Y21750000D01*
X13785714Y21678572D01*
X13857142Y21535715D01*
X13928571Y21250000D01*
X13928571Y20892858D01*
X13857142Y20607143D01*
X13785714Y20464286D01*
X13714285Y20392858D01*
X13571428Y20321429D01*
X13428571Y20321429D01*
X13285714Y20392858D01*
X13214285Y20464286D01*
X13142857Y20607143D01*
X13071428Y20892858D01*
X13071428Y21250000D01*
X13142857Y21535715D01*
X13214285Y21678572D01*
X13285714Y21750000D01*
X13428571Y21821429D01*
X14571428Y20464286D02*
X14642857Y20392858D01*
X14571428Y20321429D01*
X14500000Y20392858D01*
X14571428Y20464286D01*
X14571428Y20321429D01*
X16000000Y21821429D02*
X15285714Y21821429D01*
X15214285Y21107143D01*
X15285714Y21178572D01*
X15428571Y21250000D01*
X15785714Y21250000D01*
X15928571Y21178572D01*
X16000000Y21107143D01*
X16071428Y20964286D01*
X16071428Y20607143D01*
X16000000Y20464286D01*
X15928571Y20392858D01*
X15785714Y20321429D01*
X15428571Y20321429D01*
X15285714Y20392858D01*
X15214285Y20464286D01*
X17000000Y21821429D02*
X17142857Y21821429D01*
X17285714Y21750000D01*
X17357142Y21678572D01*
X17428571Y21535715D01*
X17500000Y21250000D01*
X17500000Y20892858D01*
X17428571Y20607143D01*
X17357142Y20464286D01*
X17285714Y20392858D01*
X17142857Y20321429D01*
X17000000Y20321429D01*
X16857142Y20392858D01*
X16785714Y20464286D01*
X16714285Y20607143D01*
X16642857Y20892858D01*
X16642857Y21250000D01*
X16714285Y21535715D01*
X16785714Y21678572D01*
X16857142Y21750000D01*
X17000000Y21821429D01*
X18428571Y21821429D02*
X18571428Y21821429D01*
X18714285Y21750000D01*
X18785714Y21678572D01*
X18857142Y21535715D01*
X18928571Y21250000D01*
X18928571Y20892858D01*
X18857142Y20607143D01*
X18785714Y20464286D01*
X18714285Y20392858D01*
X18571428Y20321429D01*
X18428571Y20321429D01*
X18285714Y20392858D01*
X18214285Y20464286D01*
X18142857Y20607143D01*
X18071428Y20892858D01*
X18071428Y21250000D01*
X18142857Y21535715D01*
X18214285Y21678572D01*
X18285714Y21750000D01*
X18428571Y21821429D01*
X19571428Y20321429D02*
X19571428Y21321429D01*
X19571428Y21178572D02*
X19642857Y21250000D01*
X19785714Y21321429D01*
X20000000Y21321429D01*
X20142857Y21250000D01*
X20214285Y21107143D01*
X20214285Y20321429D01*
X20214285Y21107143D02*
X20285714Y21250000D01*
X20428571Y21321429D01*
X20642857Y21321429D01*
X20785714Y21250000D01*
X20857142Y21107143D01*
X20857142Y20321429D01*
X21571428Y20321429D02*
X21571428Y21321429D01*
X21571428Y21178572D02*
X21642857Y21250000D01*
X21785714Y21321429D01*
X22000000Y21321429D01*
X22142857Y21250000D01*
X22214285Y21107143D01*
X22214285Y20321429D01*
X22214285Y21107143D02*
X22285714Y21250000D01*
X22428571Y21321429D01*
X22642857Y21321429D01*
X22785714Y21250000D01*
X22857142Y21107143D01*
X22857142Y20321429D01*
X13928571Y12321429D02*
X13071428Y12321429D01*
X13500000Y12321429D02*
X13500000Y13821429D01*
X13357142Y13607143D01*
X13214285Y13464286D01*
X13071428Y13392858D01*
X14571428Y12464286D02*
X14642857Y12392858D01*
X14571428Y12321429D01*
X14500000Y12392858D01*
X14571428Y12464286D01*
X14571428Y12321429D01*
X15571428Y13821429D02*
X15714285Y13821429D01*
X15857142Y13750000D01*
X15928571Y13678572D01*
X16000000Y13535715D01*
X16071428Y13250000D01*
X16071428Y12892858D01*
X16000000Y12607143D01*
X15928571Y12464286D01*
X15857142Y12392858D01*
X15714285Y12321429D01*
X15571428Y12321429D01*
X15428571Y12392858D01*
X15357142Y12464286D01*
X15285714Y12607143D01*
X15214285Y12892858D01*
X15214285Y13250000D01*
X15285714Y13535715D01*
X15357142Y13678572D01*
X15428571Y13750000D01*
X15571428Y13821429D01*
X17000000Y13821429D02*
X17142857Y13821429D01*
X17285714Y13750000D01*
X17357142Y13678572D01*
X17428571Y13535715D01*
X17500000Y13250000D01*
X17500000Y12892858D01*
X17428571Y12607143D01*
X17357142Y12464286D01*
X17285714Y12392858D01*
X17142857Y12321429D01*
X17000000Y12321429D01*
X16857142Y12392858D01*
X16785714Y12464286D01*
X16714285Y12607143D01*
X16642857Y12892858D01*
X16642857Y13250000D01*
X16714285Y13535715D01*
X16785714Y13678572D01*
X16857142Y13750000D01*
X17000000Y13821429D01*
X18428571Y13821429D02*
X18571428Y13821429D01*
X18714285Y13750000D01*
X18785714Y13678572D01*
X18857142Y13535715D01*
X18928571Y13250000D01*
X18928571Y12892858D01*
X18857142Y12607143D01*
X18785714Y12464286D01*
X18714285Y12392858D01*
X18571428Y12321429D01*
X18428571Y12321429D01*
X18285714Y12392858D01*
X18214285Y12464286D01*
X18142857Y12607143D01*
X18071428Y12892858D01*
X18071428Y13250000D01*
X18142857Y13535715D01*
X18214285Y13678572D01*
X18285714Y13750000D01*
X18428571Y13821429D01*
X19571428Y12321429D02*
X19571428Y13321429D01*
X19571428Y13178572D02*
X19642857Y13250000D01*
X19785714Y13321429D01*
X20000000Y13321429D01*
X20142857Y13250000D01*
X20214285Y13107143D01*
X20214285Y12321429D01*
X20214285Y13107143D02*
X20285714Y13250000D01*
X20428571Y13321429D01*
X20642857Y13321429D01*
X20785714Y13250000D01*
X20857142Y13107143D01*
X20857142Y12321429D01*
X21571428Y12321429D02*
X21571428Y13321429D01*
X21571428Y13178572D02*
X21642857Y13250000D01*
X21785714Y13321429D01*
X22000000Y13321429D01*
X22142857Y13250000D01*
X22214285Y13107143D01*
X22214285Y12321429D01*
X22214285Y13107143D02*
X22285714Y13250000D01*
X22428571Y13321429D01*
X22642857Y13321429D01*
X22785714Y13250000D01*
X22857142Y13107143D01*
X22857142Y12321429D01*
X13428571Y17821429D02*
X13571428Y17821429D01*
X13714285Y17750000D01*
X13785714Y17678572D01*
X13857142Y17535715D01*
X13928571Y17250000D01*
X13928571Y16892858D01*
X13857142Y16607143D01*
X13785714Y16464286D01*
X13714285Y16392858D01*
X13571428Y16321429D01*
X13428571Y16321429D01*
X13285714Y16392858D01*
X13214285Y16464286D01*
X13142857Y16607143D01*
X13071428Y16892858D01*
X13071428Y17250000D01*
X13142857Y17535715D01*
X13214285Y17678572D01*
X13285714Y17750000D01*
X13428571Y17821429D01*
X14571428Y16464286D02*
X14642857Y16392858D01*
X14571428Y16321429D01*
X14500000Y16392858D01*
X14571428Y16464286D01*
X14571428Y16321429D01*
X15142857Y17821429D02*
X16142857Y17821429D01*
X15500000Y16321429D01*
X17428571Y17821429D02*
X16714285Y17821429D01*
X16642857Y17107143D01*
X16714285Y17178572D01*
X16857142Y17250000D01*
X17214285Y17250000D01*
X17357142Y17178572D01*
X17428571Y17107143D01*
X17500000Y16964286D01*
X17500000Y16607143D01*
X17428571Y16464286D01*
X17357142Y16392858D01*
X17214285Y16321429D01*
X16857142Y16321429D01*
X16714285Y16392858D01*
X16642857Y16464286D01*
X18428571Y17821429D02*
X18571428Y17821429D01*
X18714285Y17750000D01*
X18785714Y17678572D01*
X18857142Y17535715D01*
X18928571Y17250000D01*
X18928571Y16892858D01*
X18857142Y16607143D01*
X18785714Y16464286D01*
X18714285Y16392858D01*
X18571428Y16321429D01*
X18428571Y16321429D01*
X18285714Y16392858D01*
X18214285Y16464286D01*
X18142857Y16607143D01*
X18071428Y16892858D01*
X18071428Y17250000D01*
X18142857Y17535715D01*
X18214285Y17678572D01*
X18285714Y17750000D01*
X18428571Y17821429D01*
X19571428Y16321429D02*
X19571428Y17321429D01*
X19571428Y17178572D02*
X19642857Y17250000D01*
X19785714Y17321429D01*
X20000000Y17321429D01*
X20142857Y17250000D01*
X20214285Y17107143D01*
X20214285Y16321429D01*
X20214285Y17107143D02*
X20285714Y17250000D01*
X20428571Y17321429D01*
X20642857Y17321429D01*
X20785714Y17250000D01*
X20857142Y17107143D01*
X20857142Y16321429D01*
X21571428Y16321429D02*
X21571428Y17321429D01*
X21571428Y17178572D02*
X21642857Y17250000D01*
X21785714Y17321429D01*
X22000000Y17321429D01*
X22142857Y17250000D01*
X22214285Y17107143D01*
X22214285Y16321429D01*
X22214285Y17107143D02*
X22285714Y17250000D01*
X22428571Y17321429D01*
X22642857Y17321429D01*
X22785714Y17250000D01*
X22857142Y17107143D01*
X22857142Y16321429D01*
X13428571Y25821429D02*
X13571428Y25821429D01*
X13714285Y25750000D01*
X13785714Y25678572D01*
X13857142Y25535715D01*
X13928571Y25250000D01*
X13928571Y24892858D01*
X13857142Y24607143D01*
X13785714Y24464286D01*
X13714285Y24392858D01*
X13571428Y24321429D01*
X13428571Y24321429D01*
X13285714Y24392858D01*
X13214285Y24464286D01*
X13142857Y24607143D01*
X13071428Y24892858D01*
X13071428Y25250000D01*
X13142857Y25535715D01*
X13214285Y25678572D01*
X13285714Y25750000D01*
X13428571Y25821429D01*
X14571428Y24464286D02*
X14642857Y24392858D01*
X14571428Y24321429D01*
X14500000Y24392858D01*
X14571428Y24464286D01*
X14571428Y24321429D01*
X15214285Y25678572D02*
X15285714Y25750000D01*
X15428571Y25821429D01*
X15785714Y25821429D01*
X15928571Y25750000D01*
X16000000Y25678572D01*
X16071428Y25535715D01*
X16071428Y25392858D01*
X16000000Y25178572D01*
X15142857Y24321429D01*
X16071428Y24321429D01*
X17428571Y25821429D02*
X16714285Y25821429D01*
X16642857Y25107143D01*
X16714285Y25178572D01*
X16857142Y25250000D01*
X17214285Y25250000D01*
X17357142Y25178572D01*
X17428571Y25107143D01*
X17500000Y24964286D01*
X17500000Y24607143D01*
X17428571Y24464286D01*
X17357142Y24392858D01*
X17214285Y24321429D01*
X16857142Y24321429D01*
X16714285Y24392858D01*
X16642857Y24464286D01*
X18428571Y25821429D02*
X18571428Y25821429D01*
X18714285Y25750000D01*
X18785714Y25678572D01*
X18857142Y25535715D01*
X18928571Y25250000D01*
X18928571Y24892858D01*
X18857142Y24607143D01*
X18785714Y24464286D01*
X18714285Y24392858D01*
X18571428Y24321429D01*
X18428571Y24321429D01*
X18285714Y24392858D01*
X18214285Y24464286D01*
X18142857Y24607143D01*
X18071428Y24892858D01*
X18071428Y25250000D01*
X18142857Y25535715D01*
X18214285Y25678572D01*
X18285714Y25750000D01*
X18428571Y25821429D01*
X19571428Y24321429D02*
X19571428Y25321429D01*
X19571428Y25178572D02*
X19642857Y25250000D01*
X19785714Y25321429D01*
X20000000Y25321429D01*
X20142857Y25250000D01*
X20214285Y25107143D01*
X20214285Y24321429D01*
X20214285Y25107143D02*
X20285714Y25250000D01*
X20428571Y25321429D01*
X20642857Y25321429D01*
X20785714Y25250000D01*
X20857142Y25107143D01*
X20857142Y24321429D01*
X21571428Y24321429D02*
X21571428Y25321429D01*
X21571428Y25178572D02*
X21642857Y25250000D01*
X21785714Y25321429D01*
X22000000Y25321429D01*
X22142857Y25250000D01*
X22214285Y25107143D01*
X22214285Y24321429D01*
X22214285Y25107143D02*
X22285714Y25250000D01*
X22428571Y25321429D01*
X22642857Y25321429D01*
X22785714Y25250000D01*
X22857142Y25107143D01*
X22857142Y24321429D01*
X13428571Y29821429D02*
X13571428Y29821429D01*
X13714285Y29750000D01*
X13785714Y29678572D01*
X13857142Y29535715D01*
X13928571Y29250000D01*
X13928571Y28892858D01*
X13857142Y28607143D01*
X13785714Y28464286D01*
X13714285Y28392858D01*
X13571428Y28321429D01*
X13428571Y28321429D01*
X13285714Y28392858D01*
X13214285Y28464286D01*
X13142857Y28607143D01*
X13071428Y28892858D01*
X13071428Y29250000D01*
X13142857Y29535715D01*
X13214285Y29678572D01*
X13285714Y29750000D01*
X13428571Y29821429D01*
X14571428Y28464286D02*
X14642857Y28392858D01*
X14571428Y28321429D01*
X14500000Y28392858D01*
X14571428Y28464286D01*
X14571428Y28321429D01*
X16071428Y28321429D02*
X15214285Y28321429D01*
X15642857Y28321429D02*
X15642857Y29821429D01*
X15500000Y29607143D01*
X15357142Y29464286D01*
X15214285Y29392858D01*
X16642857Y29678572D02*
X16714285Y29750000D01*
X16857142Y29821429D01*
X17214285Y29821429D01*
X17357142Y29750000D01*
X17428571Y29678572D01*
X17500000Y29535715D01*
X17500000Y29392858D01*
X17428571Y29178572D01*
X16571428Y28321429D01*
X17500000Y28321429D01*
X18857142Y29821429D02*
X18142857Y29821429D01*
X18071428Y29107143D01*
X18142857Y29178572D01*
X18285714Y29250000D01*
X18642857Y29250000D01*
X18785714Y29178572D01*
X18857142Y29107143D01*
X18928571Y28964286D01*
X18928571Y28607143D01*
X18857142Y28464286D01*
X18785714Y28392858D01*
X18642857Y28321429D01*
X18285714Y28321429D01*
X18142857Y28392858D01*
X18071428Y28464286D01*
X19571428Y28321429D02*
X19571428Y29321429D01*
X19571428Y29178572D02*
X19642857Y29250000D01*
X19785714Y29321429D01*
X20000000Y29321429D01*
X20142857Y29250000D01*
X20214285Y29107143D01*
X20214285Y28321429D01*
X20214285Y29107143D02*
X20285714Y29250000D01*
X20428571Y29321429D01*
X20642857Y29321429D01*
X20785714Y29250000D01*
X20857142Y29107143D01*
X20857142Y28321429D01*
X21571428Y28321429D02*
X21571428Y29321429D01*
X21571428Y29178572D02*
X21642857Y29250000D01*
X21785714Y29321429D01*
X22000000Y29321429D01*
X22142857Y29250000D01*
X22214285Y29107143D01*
X22214285Y28321429D01*
X22214285Y29107143D02*
X22285714Y29250000D01*
X22428571Y29321429D01*
X22642857Y29321429D01*
X22785714Y29250000D01*
X22857142Y29107143D01*
X22857142Y28321429D01*
D12*
X2300000Y8905000D03*
X2300000Y7635000D03*
X2300000Y6365000D03*
X2300000Y5095000D03*
X7700000Y5095000D03*
X7700000Y6365000D03*
X7700000Y7635000D03*
X7700000Y8905000D03*
D13*
X11750000Y8800000D03*
X11750000Y8000000D03*
X11750000Y7200000D03*
X11750000Y6400000D03*
X11750000Y5600000D03*
X11750000Y4800000D03*
X11750000Y4000000D03*
X11750000Y3200000D03*
D14*
X13200000Y1750000D03*
X14000000Y1750000D03*
X14800000Y1750000D03*
X15600000Y1750000D03*
X16400000Y1750000D03*
X17200000Y1750000D03*
X18000000Y1750000D03*
X18800000Y1750000D03*
D13*
X20250000Y3200000D03*
X20250000Y4000000D03*
X20250000Y4800000D03*
X20250000Y5600000D03*
X20250000Y6400000D03*
X20250000Y7200000D03*
X20250000Y8000000D03*
X20250000Y8800000D03*
D14*
X18800000Y10250000D03*
X18000000Y10250000D03*
X17200000Y10250000D03*
X16400000Y10250000D03*
X15600000Y10250000D03*
X14800000Y10250000D03*
X14000000Y10250000D03*
X13200000Y10250000D03*
D15*
X11000000Y20050000D03*
X11000000Y21950000D03*
X9000000Y21000000D03*
X4000000Y21000000D03*
X2000000Y20050000D03*
X2000000Y21950000D03*
X11000000Y12050000D03*
X11000000Y13950000D03*
X9000000Y13000000D03*
X4000000Y13000000D03*
X2000000Y12050000D03*
X2000000Y13950000D03*
X2000000Y17950000D03*
X2000000Y16050000D03*
X4000000Y17000000D03*
X9000000Y17000000D03*
X11000000Y17950000D03*
X11000000Y16050000D03*
X11000000Y28050000D03*
X11000000Y29950000D03*
X9000000Y29000000D03*
X4000000Y29000000D03*
X2000000Y28050000D03*
X2000000Y29950000D03*
X9000000Y25000000D03*
X11000000Y25950000D03*
X11000000Y24050000D03*
X2000000Y25950000D03*
X2000000Y24050000D03*
X4000000Y25000000D03*
D16*
X7700000Y5095000D02*
X8905000Y5095000D01*
X8905000Y5095000D02*
X9200000Y4800000D01*
X9200000Y4800000D02*
X11750000Y4800000D01*
X9365000Y6365000D02*
X10200000Y7200000D01*
X10200000Y7200000D02*
X11750000Y7200000D01*
X7700000Y6365000D02*
X9365000Y6365000D01*
X9090000Y8000000D02*
X11750000Y8000000D01*
X7700000Y7635000D02*
X8725000Y7635000D01*
X8725000Y7635000D02*
X9090000Y8000000D01*
X7700000Y8905000D02*
X11645000Y8905000D01*
X11645000Y8905000D02*
X11750000Y8800000D01*
D17*
X4000000Y21000000D02*
X9000000Y21000000D01*
D18*
X4000000Y13000000D02*
X9000000Y13000000D01*
D19*
X4000000Y17000000D02*
X9000000Y17000000D01*
D20*
X4000000Y29000000D02*
X9000000Y29000000D01*
D16*
X4000000Y25000000D02*
X9000000Y25000000D01*
M02*
